<?xml version="1.0" encoding="UTF-8"?>
<svg xmlns="http://www.w3.org/2000/svg" version="1.1" viewBox="0 0 1134.6 312.9">
  <defs>
    <style>
      .cls-1 {
        fill: #212121;
      }

      .cls-2 {
        fill: #fff;
      }

      .cls-3 {
        fill: #f03;
      }
    </style>
  </defs>
  <!-- Generator: Adobe Illustrator 28.7.1, SVG Export Plug-In . SVG Version: 1.2.0 Build 142)  -->
  <g>
    <g id="Layer_1">
      <g>
        <g>
          <path class="cls-3" d="M185.9,243.9c48.3,0,87.4-39.1,87.4-87.4s-39.1-87.4-87.4-87.4-87.4,39.1-87.4,87.4,39.1,87.4,87.4,87.4Z"/>
          <path class="cls-2" d="M185.9,110.4c25.4,0,46,20.7,46,46s-20.7,46-46,46-46-20.7-46-46,20.7-46,46-46ZM185.9,103.3c-29.3,0-53.1,23.8-53.1,53.1s23.8,53.1,53.1,53.1,53.1-23.8,53.1-53.1-23.8-53.1-53.1-53.1Z"/>
          <path class="cls-2" d="M169.1,182.3l44.7-25.8-44.7-25.8v51.7Z"/>
        </g>
        <g>
          <g>
            <path class="cls-1" d="M727.8,97.6h31.7l8.4,44.8c3.4,18.1,7.1,44.9,8.4,56.6h.1c1.4-11.7,4.6-38.4,8.2-56.7l8.7-44.6h31.5v120.8h-19.2v-52.6c0-15.8,1.2-35.6,2.1-53.6h-.2l-2.9,15.8-18,90.3h-20.7l-18.1-90.3-2.7-15.8h-.2c.9,18,2,37.7,2,53.6v52.6h-19.2v-120.8Z"/>
            <path class="cls-1" d="M835.6,196.5v-66.4h19.9v64.3c0,7.8,1.7,11.2,5.8,11.2s6.1-1.4,8.3-7.1v-68.4h19.9v88.3h-16.8l-1.2-11.9h0c-2.4,8.4-7.3,13.6-17.3,13.6s-18.5-8.5-18.5-23.6Z"/>
            <path class="cls-1" d="M897.3,191.5l16.8-.3c-.9,9.8,2.6,15.4,8.5,15.4s7.7-3.5,7.7-8.1-5.6-10.2-15.1-17.6c-11.4-8.6-18.1-14.8-18.1-29s8.4-23.3,25.3-23.3,25.3,8.9,24,30.4l-16.7.7c-.1-13.2-2-17.1-7.6-17.1s-7.6,2.7-7.6,7.6c0,7.3,3.9,10.5,10.4,15.3,15.6,11.5,22.8,16.8,22.8,31.3s-8.9,23.8-26.1,23.8-26.9-10.7-24.3-28.9Z"/>
            <path class="cls-1" d="M954.4,109.6c0-9.4,3.5-12,10.7-12s10.6,3,10.6,12-3.2,12.3-10.6,12.3-10.7-2.8-10.7-12.3ZM955.4,130.1h19.3v88.3h-19.3v-88.3Z"/>
            <path class="cls-1" d="M984.2,180.3v-12.4c0-29.1,7.9-39.5,27.2-39.5s14.1,1.9,18,5.8,7.1,14.7,5.9,28.4l-17.3,1.2c0-16.4-1.4-21.7-6.9-21.7s-7.1,5.6-7.1,23.3v17.1c0,18.3,1,23.9,6.9,23.9s7.6-5,7.6-20.6l17.4.9c.4,13.7-1.7,22.6-7.3,27.8-3.9,3.7-9.6,5.5-18,5.5-19.7,0-26.5-9.6-26.5-39.6Z"/>
          </g>
          <g>
            <path class="cls-1" d="M312.7,218.6v-37.8l-22.8-83.2h19.8l8.2,36.9c1.9,8.5,3.8,20.7,4.7,25.1h.1c.9-4.2,2.7-16.4,4.7-24.9l8.5-37h19.8l-23.1,83.2v37.8h-19.9Z"/>
            <path class="cls-1" d="M404,170.8v7.1c0,31.4-6.9,42.1-27.5,42.1s-27.5-10.9-27.5-42.1v-7.1c0-32.1,8.2-42.3,27.9-42.3s27.1,10.7,27.1,42.3ZM383.8,164c0-17-1.6-21.9-7.2-21.9s-7.5,4.9-7.5,21.9v20.3c0,17.6,1.7,22,7.2,22s7.5-4.5,7.5-22v-20.3Z"/>
            <path class="cls-1" d="M412.3,196.5v-66.4h19.9v64.3c0,7.8,1.7,11.2,5.8,11.2s6.1-1.4,8.3-7.1v-68.4h19.9v88.3h-16.8l-1.2-11.9h0c-2.4,8.4-7.3,13.6-17.3,13.6s-18.5-8.5-18.5-23.6Z"/>
            <path class="cls-1" d="M480.2,218.4v-103.8h-19.7v-17h59.2v17h-19.7v103.8h-19.9Z"/>
            <path class="cls-1" d="M514.2,196.5v-66.4h19.9v64.3c0,7.8,1.7,11.2,5.8,11.2s6.1-1.4,8.3-7.1v-68.4h19.9v88.3h-16.8l-1.2-11.9h0c-2.4,8.4-7.3,13.6-17.3,13.6s-18.5-8.5-18.5-23.6Z"/>
            <path class="cls-1" d="M634.3,167.4v11.8c0,28.5-6,40.5-19.4,40.5s-14.3-3.6-17.4-9.6h0l-1.3,8.4h-17.3v-125.3h19.2v25.3c0,6.6.1,13.2-.4,21.2h.2c3.3-6.6,9-11.2,17.9-11.2,12.8,0,18.7,8.4,18.7,39ZM614,167.4c0-20.4-1.7-24.9-7.3-24.9s-7.3,3.3-8.8,9.6v48.7c1.7,3.4,4.8,4.8,7.9,4.8,6,0,8.1-6.3,8.1-25.5v-12.8Z"/>
            <path class="cls-1" d="M694.6,180.6h-32.9v4.8c0,15.6.4,20.9,6.8,20.9s7.8-4.9,7.9-15l17.5.8c1.3,19.2-8.6,27.7-25.5,27.7s-26.5-13.4-26.5-37.7v-15.4c0-25.6,6.8-38.2,27.1-38.2s25.6,10.7,25.6,37.3v14.8ZM661.7,162.8v6.7h13.1v-6.7c0-16.3-.6-20.9-6.6-20.9s-6.5,4.8-6.5,20.9Z"/>
          </g>
        </g>
      </g>
    </g>
  </g>
</svg>